<?xml version="1.0" encoding="UTF-8"?>
<svg width="16px" height="16px" viewBox="0 0 16 16" version="1.1" xmlns="http://www.w3.org/2000/svg" xmlns:xlink="http://www.w3.org/1999/xlink">
    <title>切片</title>
    <g id="设备管理" stroke="none" stroke-width="1" fill="none" fill-rule="evenodd">
        <g id="设备管理中心页--Dashboard-3.0版" transform="translate(-756.000000, -1660.000000)" fill="#4F5D79">
            <g id="设备管理" transform="translate(160.000000, 1636.000000)">
                <g id="编组-2" transform="translate(588.000000, 16.000000)">
                    <g id="icon16/在线设备" transform="translate(8.000000, 8.000000)">
                        <g id="Feedback_p" transform="translate(1.000000, 2.000000)">
                            <path d="M12.5,0 C13.3,0 14,0.7 14,1.5 L14,9.5 C14,10.3 13.3,11 12.5,11 L9,11 C8.3,11 7.6,13 7,13 C6.3,13 5.7,11 5,11 L1.5,11 C0.7,11 0,10.3 0,9.5 L0,1.5 C0,0.7 0.7,0 1.5,0 L12.5,0 Z M12.5,1 L1.5,1 C1.2,1 1,1.2 1,1.5 L1,9.5 C1,9.8 1.2,10 1.5,10 L5,10 C5.8,10 6.1,10.4 6.7,11.3 L7,11.7 L7.5,11 C7.6,10.9 7.7,10.8 7.8,10.6 C8.2,10.2 8.5,10 9,10 L12.5,10 C12.8,10 13,9.8 13,9.5 L13,1.5 C13,1.2 12.8,1 12.5,1 Z M4,4.7 C4.45714286,4.7 4.8,5.04285714 4.8,5.5 C4.8,5.95714286 4.45714286,6.3 4,6.3 C3.54285714,6.3 3.2,5.95714286 3.2,5.5 C3.2,5.04285714 3.54285714,4.7 4,4.7 Z M7,4.7 C7.45714286,4.7 7.8,5.04285714 7.8,5.5 C7.8,5.95714286 7.45714286,6.3 7,6.3 C6.54285714,6.3 6.2,5.95714286 6.2,5.5 C6.2,5.04285714 6.54285714,4.7 7,4.7 Z M10,4.7 C10.4571429,4.7 10.8,5.04285714 10.8,5.5 C10.8,5.95714286 10.4571429,6.3 10,6.3 C9.54285714,6.3 9.2,5.95714286 9.2,5.5 C9.2,5.04285714 9.54285714,4.7 10,4.7 Z" id="形状结合"></path>
                        </g>
                    </g>
                </g>
            </g>
        </g>
    </g>
</svg>